<svg xmlns="http://www.w3.org/2000/svg" width="24" height="24" viewBox="0 0 24 24" fill="none">
  <!-- Outer cog ring -->
  <path d="M12 1.5l1.5 2.1a9 9 0 0 1 2.6 1.1l2.5-.6 1.2 2.1-1.7 1.8a9 9 0 0 1 .5 2.8l2.4 1L18.5 14l-2.5-.3a9 9 0 0 1-1.8 2.2l.3 2.6-2.3.8-1.4-2.2a9 9 0 0 1-1.6 0l-1.4 2.2-2.3-.8.3-2.6a9 9 0 0 1-1.8-2.2L1.5 14 1 11.8l2.4-1a9 9 0 0 1 .5-2.8L2.2 6.2l1.2-2.1 2.5.6a9 9 0 0 1 2.6-1.1L10 1.5h2z" fill="currentColor" opacity="0.5"/>
  <!-- Inner circuit brain -->
  <circle cx="12" cy="11" r="4.5" fill="currentColor"/>
  <!-- Neural nodes -->
  <circle cx="12" cy="8" r="0.8" fill="currentColor" opacity="0"/>
  <circle cx="10" cy="12" r="0.8" fill="currentColor" opacity="0"/>
  <circle cx="14" cy="12" r="0.8" fill="currentColor" opacity="0"/>
  <!-- Agent connection lines -->
  <path d="M12 6.5V4M7.5 9L5.5 7.5M16.5 9l2-1.5M7.5 13.5L5 15.5M16.5 13.5l2.5 2" stroke="currentColor" stroke-width="1.2" stroke-linecap="round"/>
  <!-- Agent dots at endpoints -->
  <circle cx="12" cy="3.5" r="1.2" fill="currentColor"/>
  <circle cx="5" cy="7" r="1.2" fill="currentColor"/>
  <circle cx="19" cy="7" r="1.2" fill="currentColor"/>
  <circle cx="4.5" cy="16" r="1.2" fill="currentColor"/>
  <circle cx="19.5" cy="16" r="1.2" fill="currentColor"/>
</svg>
